<?xml version="1.0" standalone="yes"?>
<svg xmlns="http://www.w3.org/2000/svg" width="269" height="206">
<path style="fill:#ffffff; stroke:none;" d="M0 0L0 145L1 145C3.66942 138.931 6.75644 134.506 13 132L12 135L17 135L8 148L17 149C17.0783 147.315 17.0723 145.625 17.5725 143.991C22.19 128.909 27.6455 152.909 33.3827 147.936C36.012 145.657 34.0088 138.2 34 135L40 151C44.7094 144.112 42.0093 141.841 39 135L44 137L44 129L45 129L45 135L46 135L47 130L50 131L48 136L51 134L48 146L49 146L54 139C52.3368 146.447 49.5714 151.271 52 159C58.1485 155.001 57.8595 146.809 58 140L61 141L59 150L67 152L60 135L69 144C67.8931 135.78 58.5105 114.625 74 117L74 115L76 115C75.6171 126.485 71.6734 135.447 76 147L79 146L86 141L89 122L93 120L88 139L98 134L98 143L99 143L98 119L106 155L107 155L107 153L108 153L107 160L110.487 149.228L121 141C119.295 136.46 116.051 133.033 120 129L121 134L122 134L124 131L123 134L131 130L124 142L125 142L130 134L129 137L131 136L131 137L127 147L131 153L132 153L130 142C135.105 140.156 135.663 138.194 136 133L139 134L139 139L140 139L138 120C143.513 125.524 141.667 133.823 143 141L144 141C143.929 136.259 144.937 133.837 150 134L150 109C162.345 111.779 151.914 119.623 157 127C152.591 129.396 156.347 137.518 158 141L159 141L160 134L161 137L162 137L165 131L164 134L163 150L174 147L171 136L172 136L172 138L173 138L173 135L174 135L175 137L179 133C177.917 140.134 177.488 148.725 185 152L183 134C189.397 139.071 188 146.563 188 154L189 154C195.135 141.698 203.334 135.986 197 121C207.825 123.322 205.199 129.875 203 139L206 141L204 147L209 141L209 150L214 150L218 144C219.45 156.6 226.843 143.105 232 143L227 129L237 141C237.308 146.688 239.666 151.312 244 155L245 140L240 142L245 138C244.157 133.667 240.67 127.451 244 124C244.583 132.12 249.827 143.735 255 150L260 136L268 133L266 136L269 137L269 0L0 0z"/>
<path style="fill:#a5185d; stroke:none;" d="M150 109L150 134C144.015 132.994 143.549 137.035 145 142L138 120C140.641 129.982 143.221 144.818 142.958 155C142.783 161.74 139.068 168.294 140.148 174.96C140.912 179.675 144.842 180.721 149 181L158.062 144L155.289 124L157 110L150 109z"/>
<path style="fill:#b7618c; stroke:none;" d="M153.667 109.333L154.333 109.667L153.667 109.333z"/>
<path style="fill:#d2a2b9; stroke:none;" d="M157 112L158 113L157 112M151 114L152 115L151 114z"/>
<path style="fill:#b7618c; stroke:none;" d="M157 114L158 115L157 114z"/>
<path style="fill:#1d0916; stroke:none;" d="M74 115C71.5029 116.311 67.9855 116.17 66.0903 118.515C61.4022 124.316 68.1028 137.337 69 144L65 144L67 148L70 153L67 152L66 164L65 164C63.9482 159.073 65.6157 153.721 60 152L63 172C52.35 170.359 56.4601 161.789 50.4275 156.608C45.8079 152.64 41.4354 158.759 41.0586 162.995C40.8826 164.974 41.0002 167.015 41 169L36 165L33 168L40 152L35 153L37 149C27.8715 148.421 21.51 159.188 19 167C14.4973 165.235 13.3327 167.642 13 172L12 172C10.4257 168.742 7.48432 165.535 11 163L11 158C6.8316 160.14 4.93967 160.809 1 158L12 155L14 150L10 148C-1.86087 151.62 -5.57278 178.806 4 186L0 187L0 206L269 206C269 191.635 272.057 172.727 268 159L265 165L261 166L260 165L263 162L263 158L261 156L254 160C254 156.233 255.413 150.946 251 150L252 159L251 159L248 150L247 153L244 152L246 160L245 160L242 157C244.595 163.033 245.445 165.552 244 172L243 172L242 167L237 162L239 172L236 169L230 174L233 165L230 167L230 149L229 149L228 160C223.099 159.087 221.221 161.434 220 166C215.43 165.604 214.331 167.669 214 172L213 172C210.999 165.881 211.457 163.78 214 158L213 155L208 156L207 159L206 159C205.218 152.587 200.533 147.269 206 142L206 141C197.403 135.262 212.853 124.746 198 121L197 150C190.505 148.795 190.02 152.345 190 158L189 158C187.163 150.285 190.78 138.776 183 134L185 156C178.981 152.334 178.805 143.371 178 137L177 137L177 139L176 139L176 135L175 135L175 138L174 138L174 135L173 135L173 138L172 138L172 136L171 136C173.553 147.916 182.241 155.403 168 162C166.485 155.116 170.138 152.267 174 147C170.231 146.908 168.615 148.654 167 152L166 152L166 148L163 150L166 133L165 133L164 135L162 133L162 138L161 138L161 134L160 134L149 181C144.734 180.429 140.845 178.744 140.152 173.985C139.533 169.732 141.891 166.769 142.61 162.83C144.334 153.397 142.171 140.485 136 133C134.302 143.596 142.326 151.359 136 162C135.75 158.37 136.304 155.223 132 155L130 148L128 148L127 153L126 153L131 136L127 136L122 158L110 150C110.321 154.571 112.002 156.81 116 159L113 161C113.379 167.747 110.029 168.691 104 168L108 153L107 153L106 155L104 150L101 151L102 163L101 163C94.4209 150.352 94.762 147.273 98 134C85.7637 137.602 96.0929 151.753 88 157L89 162L87 162C86.3455 156.265 83.4778 154.825 78 156L81 151L81 150L79 147L78 147L77 149C72.8276 136.458 74.2797 127.775 76 115L74 115z"/>
<path style="fill:#d2a2b9; stroke:none;" d="M67 116L68 117L67 116z"/>
<path style="fill:#b7618c; stroke:none;" d="M68 116L69 117L68 116z"/>
<path style="fill:#d2a2b9; stroke:none;" d="M76 116L77 117L76 116M156 117L157 118L156 117z"/>
<path style="fill:#b7618c; stroke:none;" d="M65 118L66 119L65 118z"/>
<path style="fill:#d2a2b9; stroke:none;" d="M75 118L76 119L75 118M98 119L99 120L98 119z"/>
<path style="fill:#a5185d; stroke:none;" d="M92 120L93 121L92 120M97 120C98.8134 128.674 101.488 135.127 99 144L98 144L98 138C88.6411 143.602 96.3349 156.598 101 163L102 163C103.748 152.499 107.529 126.977 97 120z"/>
<path style="fill:#d2a2b9; stroke:none;" d="M139 120L140 121L139 120z"/>
<path style="fill:#b7618c; stroke:none;" d="M155 120L156 121L155 120M92.6667 121.333L93.3333 121.667L92.6667 121.333z"/>
<path style="fill:#a5185d; stroke:none;" d="M197 121L198 122L197 121z"/>
<path style="fill:#b7618c; stroke:none;" d="M201 121L202 122L201 121z"/>
<path style="fill:#d2a2b9; stroke:none;" d="M202 121L203 122L202 121z"/>
<path style="fill:#b7618c; stroke:none;" d="M74 122L75 123L74 122z"/>
<path style="fill:#a5185d; stroke:none;" d="M89 122L86 141C81.2082 141.366 76.1693 145.773 81 150L81 151L78 156C83.215 155.315 85.905 156.705 87 162L89 162L88 157C92.8794 155.954 92.8794 140.046 88 139L92 122L91 124L89 122z"/>
<path style="fill:#d2a2b9; stroke:none;" d="M92 122L93 123L92 122z"/>
<path style="fill:#b7618c; stroke:none;" d="M138 122L139 123L138 122z"/>
<path style="fill:#d2a2b9; stroke:none;" d="M74 123L75 124L74 123z"/>
<path style="fill:#b7618c; stroke:none;" d="M90 123L91 124L90 123M198 123L199 124L198 123M141 124L141 127L142 127L141 124M151 124L152 125L151 124z"/>
<path style="fill:#d2a2b9; stroke:none;" d="M198 124L199 125L198 124z"/>
<path style="fill:#a5185d; stroke:none;" d="M242 124L245 139L241 141C245.401 141.191 246.981 143.492 244 147L246 153L248 150L251 159L252 159L251 150L254 150L254 149L242 124z"/>
<path style="fill:#d2a2b9; stroke:none;" d="M243 124L244 125L243 124z"/>
<path style="fill:#b7618c; stroke:none;" d="M91 126L92 127L91 126M156 126L157 127L156 126z"/>
<path style="fill:#d2a2b9; stroke:none;" d="M241 126L242 127L241 126M101 127L102 128L101 127z"/>
<path style="fill:#b7618c; stroke:none;" d="M99 128L100 129L99 128M150 128L151 129L150 128z"/>
<path style="fill:#d2a2b9; stroke:none;" d="M155 128L156 129L155 128M44 129L45 130L44 129M73 129L74 130L73 129z"/>
<path style="fill:#a5185d; stroke:none;" d="M118 129L121 142L110 147C111.449 151.275 117.623 156.771 122 158C122.248 147.422 125.628 138.694 131 130L123 132L122 132L121 134L118 129z"/>
<path style="fill:#d2a2b9; stroke:none;" d="M119 129L120 130L119 129z"/>
<path style="fill:#a5185d; stroke:none;" d="M227 129L232 143C224.793 144.175 222.408 154.519 217 144L214 151L210 151L211 145L209 146L209 145L210 141L209 141C207.234 144.757 206.199 146.17 202 145L206 159L207 159L208 156L213 155L214 158C210.729 163.221 210.412 166.353 213 172L214 172C214.629 167.997 215.913 166.4 220 166C221.666 161.861 223.388 159.831 228 160L229 149L230 149L230 167L233 165L230 174L236 169L239 172L237 162L242 167L243 172L244 172C246.466 165.542 245.586 162.867 242 157L245 160L246 160L237 141L234 142C232.889 137.196 232.121 130.683 227 129z"/>
<path style="fill:#b7618c; stroke:none;" d="M244 129L245 130L244 129z"/>
<path style="fill:#a5185d; stroke:none;" d="M44 130L43 138L39 136L41 155C35.5733 157.553 32.173 161.873 33 168L36 165L41 169C41.0053 162.089 42.3158 154.587 51 156L54 140L49 147L48 147L51 134L48 136L50 131L46 135L45 135L46 130L44 130z"/>
<path style="fill:#d2a2b9; stroke:none;" d="M47 130L48 131L47 130M117 130L118 131L117 130z"/>
<path style="fill:#b7618c; stroke:none;" d="M119 130L120 131L119 130M128 130L129 131L128 130M227 130L228 131L227 130M87 131L88 132L87 131M117 131L118 132L117 131M122 131L123 132L122 131z"/>
<path style="fill:#d2a2b9; stroke:none;" d="M123.333 131.667L123.667 132.333L123.333 131.667z"/>
<path style="fill:#1d0916; stroke:none;" d="M164 131L165 132L164 131z"/>
<path style="fill:#d2a2b9; stroke:none;" d="M228 131L229 132L228 131M11 132L12 133L11 132z"/>
<path style="fill:#b7618c; stroke:none;" d="M12 132L13 133L12 132z"/>
<path style="fill:#d2a2b9; stroke:none;" d="M49 132L50 133L49 132M120 132L121 133L120 132M129 132L130 133L129 132M162 132L163 133L162 132z"/>
<path style="fill:#b7618c; stroke:none;" d="M163.667 132.333L164.333 132.667L163.667 132.333z"/>
<path style="fill:#a5185d; stroke:none;" d="M0 155L1 155L3 146L4 146L4 150C10.0111 147.774 14.0499 140.891 16 135L4 146L13 133C2.48341 134.182 0.000973921 146.176 0 155z"/>
<path style="fill:#1d0916; stroke:none;" d="M134 133L135 134L134 133z"/>
<path style="fill:#b7618c; stroke:none;" d="M176.667 133.333L177.333 133.667L176.667 133.333z"/>
<path style="fill:#d2a2b9; stroke:none;" d="M178 133L179 134L178 133z"/>
<path style="fill:#b7618c; stroke:none;" d="M229 133L230 134L229 133M231 133L232 134L231 133M266 133L267 134L266 133z"/>
<path style="fill:#a5185d; stroke:none;" d="M267 133L268 134L267 133z"/>
<path style="fill:#d2a2b9; stroke:none;" d="M6 134L7 135L6 134z"/>
<path style="fill:#b7618c; stroke:none;" d="M48 134L49 135L48 134M100 134L101 135L100 134z"/>
<path style="fill:#d2a2b9; stroke:none;" d="M117 134L118 135L117 134z"/>
<path style="fill:#b7618c; stroke:none;" d="M123 134L124 135L123 134z"/>
<path style="fill:#d2a2b9; stroke:none;" d="M124 134L125 135L124 134M127 134L128 135L127 134z"/>
<path style="fill:#a5185d; stroke:none;" d="M129 134L130 135L129 134M138 134L138 137L139 137L138 134z"/>
<path style="fill:#b7618c; stroke:none;" d="M155 134L156 135L155 134M164 134L165 135L164 134z"/>
<path style="fill:#a5185d; stroke:none;" d="M176 134L176 138L178 139L179 139L179 134L176 134M199 134L200 135L199 134M265 134L266 135L265 134z"/>
<path style="fill:#d2a2b9; stroke:none;" d="M266 134L267 135L266 134z"/>
<path style="fill:#b7618c; stroke:none;" d="M12 135L13 136L12 135M16 135L17 136L16 135M34 135L35 136L34 135z"/>
<path style="fill:#d2a2b9; stroke:none;" d="M39 135L40 136L39 135z"/>
<path style="fill:#a5185d; stroke:none;" d="M60 135L67 144L60 135z"/>
<path style="fill:#d2a2b9; stroke:none;" d="M73 135L74 136L73 135z"/>
<path style="fill:#b7618c; stroke:none;" d="M97 135L98 136L97 135z"/>
<path style="fill:#d2a2b9; stroke:none;" d="M100 135L101 136L100 135z"/>
<path style="fill:#b7618c; stroke:none;" d="M128.333 135.667L128.667 136.333L128.333 135.667z"/>
<path style="fill:#d2a2b9; stroke:none;" d="M129 135L130 136L129 135M159 135L159 139L160 139L159 135M185 135L186 136L185 135z"/>
<path style="fill:#b7618c; stroke:none;" d="M264.667 135.333L265.333 135.667L264.667 135.333z"/>
<path style="fill:#ffffff; stroke:none;" d="M11 136L4 146L13 136L11 136z"/>
<path style="fill:#a5185d; stroke:none;" d="M34 136L35 153L39 151L37 136L34 136z"/>
<path style="fill:#b7618c; stroke:none;" d="M49 136L50 137L49 136z"/>
<path style="fill:#d2a2b9; stroke:none;" d="M63 136L64 137L63 136M67 136L68 137L67 136z"/>
<path style="fill:#b7618c; stroke:none;" d="M88 136L89 137L88 136z"/>
<path style="fill:#a5185d; stroke:none;" d="M91 136L91 139L93 136L91 136z"/>
<path style="fill:#d2a2b9; stroke:none;" d="M143 136L144 137L143 136z"/>
<path style="fill:#b7618c; stroke:none;" d="M186 136L187 137L186 136M203 136L204 137L203 136z"/>
<path style="fill:#d2a2b9; stroke:none;" d="M232 136L233 137L232 136M260 136L261 137L260 136z"/>
<path style="fill:#a5185d; stroke:none;" d="M254 160L261 156L263 158L263 162L260 165L261 166L265 165L268 156L265 157C266.655 148.387 257.973 144.979 269 140L268 136C256.902 136.132 254.001 150.654 254 160z"/>
<path style="fill:#b7618c; stroke:none;" d="M42 137L43 138L42 137M60.3333 137.667L60.6667 138.333L60.3333 137.667M104.333 137.667L104.667 138.333L104.333 137.667z"/>
<path style="fill:#a5185d; stroke:none;" d="M130 137L131 138L130 137z"/>
<path style="fill:#b7618c; stroke:none;" d="M143 137L144 138L143 137M161 137L162 138L161 137z"/>
<path style="fill:#d2a2b9; stroke:none;" d="M174 137L175 138L174 137M203 137L204 138L203 137z"/>
<path style="fill:#b7618c; stroke:none;" d="M267.667 137.333L268.333 137.667L267.667 137.333M10 138L11 139L10 138z"/>
<path style="fill:#d2a2b9; stroke:none;" d="M21 138L22 139L21 138z"/>
<path style="fill:#a5185d; stroke:none;" d="M18 150L9 149L9 150L14 150L12 155L1 158C4.47245 162.023 7.00481 160.905 11 158L11 163C5.57343 164.163 9.95778 169.124 12 172L13 172C13.632 167.992 14.8506 166.386 19 167C21.5162 161.724 27.6814 156.133 28.267 150.155C29.4797 137.773 15.5598 136.182 18 150z"/>
<path style="fill:#d2a2b9; stroke:none;" d="M23 138L24 139L23 138M40 138L41 139L40 138M48 138L49 139L48 138z"/>
<path style="fill:#b7618c; stroke:none;" d="M64 138L65 139L64 138z"/>
<path style="fill:#d2a2b9; stroke:none;" d="M142 138L143 139L142 138z"/>
<path style="fill:#b7618c; stroke:none;" d="M176 138L177 139L176 138z"/>
<path style="fill:#d2a2b9; stroke:none;" d="M187 138L188 139L187 138M244 138L245 139L244 138M268 138L269 139L268 138M3 139L4 140L3 139M14 139L15 140L14 139M19 139L20 140L19 139z"/>
<path style="fill:#b7618c; stroke:none;" d="M25 139L26 140L25 139z"/>
<path style="fill:#d2a2b9; stroke:none;" d="M53 139L54 140L53 139z"/>
<path style="fill:#a5185d; stroke:none;" d="M57 139L58 140L57 139z"/>
<path style="fill:#b7618c; stroke:none;" d="M61 139L62 140L61 139z"/>
<path style="fill:#d2a2b9; stroke:none;" d="M125 139L126 140L125 139z"/>
<path style="fill:#a5185d; stroke:none;" d="M203.667 139.333L204.333 139.667L203.667 139.333z"/>
<path style="fill:#b7618c; stroke:none;" d="M233 139L234 140L233 139z"/>
<path style="fill:#ffffff; stroke:none;" d="M266.667 139.333L267.333 139.667L266.667 139.333z"/>
<path style="fill:#b7618c; stroke:none;" d="M3 140L4 141L3 140M7 140L8 141L7 140z"/>
<path style="fill:#d2a2b9; stroke:none;" d="M13 140L14 141L13 140z"/>
<path style="fill:#b7618c; stroke:none;" d="M18 140L19 141L18 140z"/>
<path style="fill:#d2a2b9; stroke:none;" d="M41 140L42 141L41 140M51 140L52 141L51 140z"/>
<path style="fill:#b7618c; stroke:none;" d="M58 140L59 141L58 140M68 140L69 141L68 140M103 140L104 141L103 140M134 140L135 141L134 140z"/>
<path style="fill:#a5185d; stroke:none;" d="M131 141L132 154L140 156L137 140L131 141z"/>
<path style="fill:#d2a2b9; stroke:none;" d="M203 140L204 141L203 140z"/>
<path style="fill:#b7618c; stroke:none;" d="M237 140L238 141L237 140z"/>
<path style="fill:#d2a2b9; stroke:none;" d="M240.333 140.667L240.667 141.333L240.333 140.667z"/>
<path style="fill:#b7618c; stroke:none;" d="M242 140L243 141L242 140z"/>
<path style="fill:#d2a2b9; stroke:none;" d="M249 140L250 141L249 140M268 140L269 141L268 140z"/>
<path style="fill:#b7618c; stroke:none;" d="M2 141L3 142L2 141z"/>
<path style="fill:#d2a2b9; stroke:none;" d="M12 141L13 142L12 141z"/>
<path style="fill:#a5185d; stroke:none;" d="M58 141L58 155C49.1139 160.3 53.6522 171.294 63 172L60 152L65 164L66 164L68 155L67 155L65 157L65 150L59 150L61 141L58 141z"/>
<path style="fill:#b7618c; stroke:none;" d="M120 141L121 142L120 141z"/>
<path style="fill:#d2a2b9; stroke:none;" d="M143.667 141.333L144.333 141.667L143.667 141.333z"/>
<path style="fill:#b7618c; stroke:none;" d="M163 141L164 142L163 141z"/>
<path style="fill:#a5185d; stroke:none;" d="M198 141L199 142L198 141z"/>
<path style="fill:#d2a2b9; stroke:none;" d="M234 141L235 142L234 141M250 141L251 142L250 141z"/>
<path style="fill:#b7618c; stroke:none;" d="M264 141L265 142L264 141z"/>
<path style="fill:#ffffff; stroke:none;" d="M261 148C265.11 150.133 266.061 152.566 265 157C270.619 153.902 269 146.645 269 141C264.358 141.626 261.984 143.348 261 148z"/>
<path style="fill:#d2a2b9; stroke:none;" d="M43 142L44 143L43 142M74 142L75 143L74 142M99 142L100 143L99 142z"/>
<path style="fill:#b7618c; stroke:none;" d="M124 142L125 143L124 142M128 142L129 143L128 142M130.333 142.667L130.667 143.333L130.333 142.667z"/>
<path style="fill:#d2a2b9; stroke:none;" d="M229 142L230 143L229 142M246 142L247 143L246 142M263 142L264 143L263 142z"/>
<path style="fill:#b7618c; stroke:none;" d="M6 143L7 144L6 143M34 143L35 144L34 143M53 143L54 144L53 143z"/>
<path style="fill:#d2a2b9; stroke:none;" d="M67 143L68 144L67 143M98 143L99 144L98 143z"/>
<path style="fill:#b7618c; stroke:none;" d="M162 143L163 144L162 143M197 143L198 144L197 143z"/>
<path style="fill:#d2a2b9; stroke:none;" d="M227 143L228 144L227 143z"/>
<path style="fill:#a5185d; stroke:none;" d="M127 144L128 145L127 144z"/>
<path style="fill:#b7618c; stroke:none;" d="M184 144L185 145L184 144z"/>
<path style="fill:#d2a2b9; stroke:none;" d="M196 144L197 145L196 144M209 144L209 146L211 144L209 144M215 144L216 145L215 144z"/>
<path style="fill:#b7618c; stroke:none;" d="M217 144L218 145L217 144M235 144L236 145L235 144z"/>
<path style="fill:#d2a2b9; stroke:none;" d="M261 144L262 145L261 144M52 145L53 146L52 145z"/>
<path style="fill:#1d0916; stroke:none;" d="M77 145L78 146L77 145z"/>
<path style="fill:#d2a2b9; stroke:none;" d="M174 145L175 146L174 145z"/>
<path style="fill:#a5185d; stroke:none;" d="M191 150L197 150L197 145L191 150z"/>
<path style="fill:#d2a2b9; stroke:none;" d="M207 145L208 146L207 145z"/>
<path style="fill:#b7618c; stroke:none;" d="M226 145L227 146L226 145z"/>
<path style="fill:#ffffff; stroke:none;" d="M235.333 145.667L235.667 146.333L235.333 145.667z"/>
<path style="fill:#d2a2b9; stroke:none;" d="M246 145L247 146L246 145z"/>
<path style="fill:#b7618c; stroke:none;" d="M3 146L4 147L3 146M43 146L44 147L43 146z"/>
<path style="fill:#d2a2b9; stroke:none;" d="M48 146L49 147L48 146M59 146L60 147L59 146M66 146L67 147L66 146z"/>
<path style="fill:#a5185d; stroke:none;" d="M67 146L67 148L69 148L67 146M77 146L78 147L77 146z"/>
<path style="fill:#d2a2b9; stroke:none;" d="M78 146L79 147L78 146z"/>
<path style="fill:#b7618c; stroke:none;" d="M112 146L113 147L112 146M131.333 146.667L131.667 147.333L131.333 146.667M170 146L171 147L170 146z"/>
<path style="fill:#a5185d; stroke:none;" d="M174 146L170 154L171 151C166.972 153.832 166.607 157.515 168 162L170 160C179.28 161.316 177.887 151.197 174 146z"/>
<path style="fill:#d2a2b9; stroke:none;" d="M193 146L194 147L193 146M205 146L206 147L205 146z"/>
<path style="fill:#b7618c; stroke:none;" d="M206 146L207 147L206 146z"/>
<path style="fill:#d2a2b9; stroke:none;" d="M252 146L253 147L252 146M256 146L257 147L256 146z"/>
<path style="fill:#ffffff; stroke:none;" d="M3 147L1 153C4.33147 152.286 4.59146 149.762 3 147z"/>
<path style="fill:#d2a2b9; stroke:none;" d="M12 147L13 148L12 147z"/>
<path style="fill:#b7618c; stroke:none;" d="M17.3333 147.667L17.6667 148.333L17.3333 147.667z"/>
<path style="fill:#d2a2b9; stroke:none;" d="M77 147L78 148L77 147z"/>
<path style="fill:#a5185d; stroke:none;" d="M126 147L126 153L127 153L128 147L126 147z"/>
<path style="fill:#d2a2b9; stroke:none;" d="M165 147L166 148L165 147z"/>
<path style="fill:#a5185d; stroke:none;" d="M166 147L166 152L167 152L169 147L166 147z"/>
<path style="fill:#d2a2b9; stroke:none;" d="M169 147L170 148L169 147M192 147L193 148L192 147z"/>
<path style="fill:#b7618c; stroke:none;" d="M209 147L210 148L209 147M235.667 147.333L236.333 147.667L235.667 147.333z"/>
<path style="fill:#d2a2b9; stroke:none;" d="M2 148L3 149L2 148z"/>
<path style="fill:#b7618c; stroke:none;" d="M12 148L12 149L15 149L12 148z"/>
<path style="fill:#d2a2b9; stroke:none;" d="M33 148L34 149L33 148z"/>
<path style="fill:#a5185d; stroke:none;" d="M34 148L35 149L34 148M77 148L78 149L77 148z"/>
<path style="fill:#d2a2b9; stroke:none;" d="M173 148L174 149L173 148z"/>
<path style="fill:#b7618c; stroke:none;" d="M179 148L180 149L179 148M220 148L221 149L220 148z"/>
<path style="fill:#d2a2b9; stroke:none;" d="M225 148L226 149L225 148z"/>
<path style="fill:#ffffff; stroke:none;" d="M236 148L237 149L236 148z"/>
<path style="fill:#b7618c; stroke:none;" d="M244.333 148.667L244.667 149.333L244.333 148.667M263 148L264 149L263 148z"/>
<path style="fill:#d2a2b9; stroke:none;" d="M17 149L18 150L17 149M29 149L30 150L29 149M31 149L32 150L31 149z"/>
<path style="fill:#a5185d; stroke:none;" d="M67 149L70 153L67 149z"/>
<path style="fill:#d2a2b9; stroke:none;" d="M130 149L131 150L130 149M172 149L173 150L172 149M239 149L240 150L239 149M35 150L36 151L35 150z"/>
<path style="fill:#b7618c; stroke:none;" d="M40 150L41 151L40 150z"/>
<path style="fill:#d2a2b9; stroke:none;" d="M50 150L51 151L50 150z"/>
<path style="fill:#b7618c; stroke:none;" d="M102.333 150.667L102.667 151.333L102.333 150.667M109 150L110 151L109 150z"/>
<path style="fill:#ffffff; stroke:none;" d="M171 150L171 153L172 153L173 150L171 150z"/>
<path style="fill:#a5185d; stroke:none;" d="M181 150L185 156L181 150z"/>
<path style="fill:#b7618c; stroke:none;" d="M182 150L183 151L182 150M208 150L209 151L208 150M210 150L211 151L210 150M213 150L214 151L213 150z"/>
<path style="fill:#d2a2b9; stroke:none;" d="M244.333 150.667L244.667 151.333L244.333 150.667z"/>
<path style="fill:#b7618c; stroke:none;" d="M35 151L36 152L35 151M39 151L40 152L39 151z"/>
<path style="fill:#a5185d; stroke:none;" d="M78.3333 151.667L78.6667 152.333L78.3333 151.667z"/>
<path style="fill:#d2a2b9; stroke:none;" d="M104 151L105 152L104 151M109 151L110 152L109 151M172 151L173 152L172 151M240 151L241 152L240 151M265 151L266 152L265 151M65 152L67 154L65 152z"/>
<path style="fill:#b7618c; stroke:none;" d="M66 152L67 153L66 152z"/>
<path style="fill:#ffffff; stroke:none;" d="M101 152L103 160L104 160L101 152z"/>
<path style="fill:#d2a2b9; stroke:none;" d="M105 152L106 153L105 152M132 152L133 153L132 152M170 152L171 153L170 152M184 152L185 153L184 152z"/>
<path style="fill:#a5185d; stroke:none;" d="M34 153L32 157L34 153z"/>
<path style="fill:#ffffff; stroke:none;" d="M39 153L41 155L39 153z"/>
<path style="fill:#d2a2b9; stroke:none;" d="M40 153L41 154L40 153z"/>
<path style="fill:#b7618c; stroke:none;" d="M57 153L58 154L57 153z"/>
<path style="fill:#ffffff; stroke:none;" d="M133 153L134 154L133 153z"/>
<path style="fill:#a5185d; stroke:none;" d="M160 153L159 160C163.164 158.604 162.714 155.935 160 153z"/>
<path style="fill:#b7618c; stroke:none;" d="M170 153L171 154L170 153z"/>
<path style="fill:#a5185d; stroke:none;" d="M189 153L189 158L190 158L189 153z"/>
<path style="fill:#d2a2b9; stroke:none;" d="M266 153L267 154L266 153M39 154L40 155L39 154M50 154L51 155L50 154M57 154L58 155L57 154z"/>
<path style="fill:#ffffff; stroke:none;" d="M66 154L66 157L67 157L66 154z"/>
<path style="fill:#b7618c; stroke:none;" d="M101 154L102 155L101 154z"/>
<path style="fill:#a5185d; stroke:none;" d="M125 154L126 155L125 154z"/>
<path style="fill:#b7618c; stroke:none;" d="M132 154L133 155L132 154z"/>
<path style="fill:#a5185d; stroke:none;" d="M110 155L104 168C109.948 169.083 114.933 168.139 113 161L116 159L110 155z"/>
<path style="fill:#b7618c; stroke:none;" d="M136 155L137 156L136 155z"/>
<path style="fill:#ffffff; stroke:none;" d="M137 155L137 160L137 155z"/>
<path style="fill:#b7618c; stroke:none;" d="M268 155L268 160L269 160L268 155M65 156L66 157L65 156z"/>
<path style="fill:#d2a2b9; stroke:none;" d="M103 156L104 157L103 156z"/>
<path style="fill:#a5185d; stroke:none;" d="M124 156L125 157L124 156M247 156L248 157L247 156M29 157L28 160L29 157M51 157L52 158L51 157z"/>
<path style="fill:#d2a2b9; stroke:none;" d="M54 157L55 158L54 157z"/>
<path style="fill:#a5185d; stroke:none;" d="M93 157L94 167L99 166L93 157z"/>
<path style="fill:#b7618c; stroke:none;" d="M109 157L110 158L109 157M53 158L54 159L53 158z"/>
<path style="fill:#d2a2b9; stroke:none;" d="M102.333 158.667L102.667 159.333L102.333 158.667z"/>
<path style="fill:#a5185d; stroke:none;" d="M190.333 158.667L190.667 159.333L190.333 158.667z"/>
<path style="fill:#1d0916; stroke:none;" d="M5 159L6 160L5 159z"/>
<path style="fill:#a5185d; stroke:none;" d="M136 159L135 160L135 161L136 162L137 162L138 161L138 160L136 159M26 161L25 165L26 161M70 163L69 167L70 167L70 163M87.3333 163.667L87.6667 164.333L87.3333 163.667M175.333 163.667L175.667 164.333L175.333 163.667M201 165L200 184L209 185L203 165L201 165M225 165L226 166L225 165M24 166L21 173L27 172L24 166M87 166L86 171L87 171L87 166M35 167L36 168L35 167M224 167L221 173L224 167M266 169L267 170L266 169M257 171L254 175L259 177L257 171M67 172L69 175L67 172M1 175L8 181L1 175M240 176L239 180L240 180L240 176M254 176L255 177L254 176M257 179L261 185L262 181L257 179M30 181L26 188L32 189L30 181M237.333 181.667L237.667 182.333L237.333 181.667M227 182L228 183L227 182z"/>
<path style="fill:#b7618c; stroke:none;" d="M268 182L268 187L269 187L268 182z"/>
<path style="fill:#a5185d; stroke:none;" d="M0 184C0.614015 186.851 1.30268 186.854 4 186L0 184M107 184L105 188L105 189L109 189L109 184L107 184M123 184L124 185L123 184M5 186L6 187L5 186z"/>
</svg>
