<?xml version="1.0" standalone="yes"?>
<svg xmlns="http://www.w3.org/2000/svg" width="198" height="185">
<path style="fill:#fffffe; stroke:none;" d="M0 0L0 56C0 60.5766 -2.29993 72.8643 3 74L3 75L0 75L0 185L32 185L44 183L45 183L55 185L82 185L93.2577 183.972L97 172L98 173L95 185L198 185L198 63L195 64L188 82L184 80L181 84C180.726 93.82 172.802 94.4649 165 93L161 101L171 108L171 109L168 113L149 107L149 106L156 104L151 98L157 101L157 100L151 96L157 93L157 92L151 89L154 87L151 86L156 80L149 78L149 77L158 81L159 81L152 76L155 70L154 70L149 76L152 69L146 69L146 67L151 67L151 66L144 67L147 60L140 60L140 59L148 58L148 57L139 58L140 52L133 53L135 50L131 51L132 45L125 47L122 35L127 37L120 26L117 24L127 25C127.77 29.8298 129.701 32.6464 134 35C136.381 31.2088 142.63 30.0778 147 30L147 25L152 23L152 37L151 34L156 34L160 58L161 58L167 51L177 54L177 49L178 49L179 52L180 52L187 40C187.303 44.7429 186.399 47.7859 182 50L190 55C190.764 58.9577 194.117 61.3721 198 62L198 0L110 0C104.595 0 84.2356 -2.76631 83 3L82 3L82 0L0 0z"/>
<path style="fill:#45b5e7; stroke:none;" d="M82 0L82 3L83 3L82 0M82 5L83 6L82 5M67 8L67 14L69 8L67 8M80 13L81 14L80 13M64.6667 14.3333L65.3333 14.6667L64.6667 14.3333M79 17L75 35L71 32C78.5866 27.2429 74.37 21.622 67 21L62 29L63 32L60 30L57 34L54 30L56 38C48.7818 33.5972 45.3049 32.1032 37 34L38 29L32 29C34.0454 34.074 35.434 37.8167 31 42L32 36L31 36L28 39L34 50L30 51L30 59L27 56L28 61L30 65L22 63L24 67L20 72C13.9977 70.5876 3.44999 77.3083 12.3943 81.392C16.3531 83.1994 30.1397 78.794 35 78L27 81L27 82C36.4461 82.519 36.2098 89.6065 34 97C38.3935 95.8938 40.8309 95.4959 44 99L45 99L47 96L41 92L47 89L44 86L47 87L43 80L49 79L49 76L50 76L48 100L50 98L52 99L56 79C56.2996 51.5831 90.7621 47.7771 110 47L108 42C98.8282 42.3902 91.0884 41.3179 82 44.3557C78.8244 45.4172 75.4528 47.8487 73 45L76 46L76 40C82.137 42.3455 84.3644 42.479 87 36L91 41L94 39L96 40L94 38C95.8138 27.053 82.8747 26.4557 85 36L77 38L79 17M101.333 21.6667L101.667 22.3333L101.333 21.6667z"/>
<path style="fill:#fffffe; stroke:none;" d="M67 22L68 23L67 22z"/>
<path style="fill:#45b5e7; stroke:none;" d="M27.6667 23.3333L28.3333 23.6667L27.6667 23.3333z"/>
<path style="fill:#fdba26; stroke:none;" d="M151 23L147 25L147 30C142.683 29.6486 135.354 30.3746 134 35L127 25L117 24L120 26L127 37L122 35L125 47L132 45L131 51L135 50L133 53L140 52L139 58L141 56L148 57L148 58L140 59L140 60L147 60L144 67L151 66L151 67L146 67L146 69L152 69L149 76L154 70L155 70L152 76L159 81L158 81L149 77L149 78L156 80L151 86L154 87L151 89L157 92L157 93L151 96L157 100L157 101L151 98L156 104L149 106L149 107L168 113L171 109L171 108C167.764 103.746 166.68 101.187 161 101L165 93C172.72 94.9011 182.152 94.4487 181 84C183.826 84 183.791 82.8584 184 80L188 82C191.083 75.3877 195.513 72.0426 195 64L198 63L198 62L190 55L182 50C186.969 48.4927 187.518 44.7878 187 40C182.437 42.7776 180.354 46.7158 180 52L179 52L178 49L177 49L177 54L167 51L161 58L160 58L156 34L151 34L152 37L151 23z"/>
<path style="fill:#45b5e7; stroke:none;" d="M56 24L58 27L56 24z"/>
<path style="fill:#fdba26; stroke:none;" d="M113 26L117 29L113 26z"/>
<path style="fill:#45b5e7; stroke:none;" d="M136 27L136 29L138 29L138 27L136 27M45.6667 28.3333L46.3333 28.6667L45.6667 28.3333z"/>
<path style="fill:#fffffe; stroke:none;" d="M65 28L65 32L66 32L65 28z"/>
<path style="fill:#fdba26; stroke:none;" d="M104 29L106 34L106 29L104 29z"/>
<path style="fill:#45b5e7; stroke:none;" d="M16 33L16 34L23 33L16 33z"/>
<path style="fill:#fffffe; stroke:none;" d="M85 35L88 34L85 35M89 34L92 37L89 34M35 35L36 36L35 35z"/>
<path style="fill:#fdba26; stroke:none;" d="M166 35L166 38L167 38L166 35z"/>
<path style="fill:#fffffe; stroke:none;" d="M75 36L73 41L74 41L75 36z"/>
<path style="fill:#fdba26; stroke:none;" d="M120 36L118 41L122 40L122 46L124 46C123.96 41.613 123.872 38.5162 120 36z"/>
<path style="fill:#fffffe; stroke:none;" d="M38 37L39 38L38 37M83.3333 37.6667L83.6667 38.3333L83.3333 37.6667z"/>
<path style="fill:#fdba26; stroke:none;" d="M188 39L193 43L196 37L188 39z"/>
<path style="fill:#fffffe; stroke:none;" d="M79 38L80 39L79 38M92 38L93 39L92 38z"/>
<path style="fill:#fdba26; stroke:none;" d="M113 38L113 42L114 42L113 38M184 38L182 41L184 38z"/>
<path style="fill:#fffffe; stroke:none;" d="M81 39L82 42L83 42L81 39z"/>
<path style="fill:#fdba26; stroke:none;" d="M162 41L161 47L166 47L167 47L167 39L162 41z"/>
<path style="fill:#45b5e7; stroke:none;" d="M14 41L15 42L14 41z"/>
<path style="fill:#fffffe; stroke:none;" d="M36 41L37 42L36 41z"/>
<path style="fill:#fdba26; stroke:none;" d="M116 41L115 43L117 43L116 41z"/>
<path style="fill:#fffffe; stroke:none;" d="M64 44L73 45C70.2252 42.7935 66.6748 40.9903 64 44z"/>
<path style="fill:#fdba26; stroke:none;" d="M108 42L108 45L109 45L108 42z"/>
<path style="fill:#fffffe; stroke:none;" d="M129 42L129 43L134 44L129 42M93 43L94 44L93 43M103 43L104 44L103 43z"/>
<path style="fill:#fdba26; stroke:none;" d="M111 43L110 47L118 52L124 55C132.748 56.0243 141.486 69.8899 142 78C149.212 85.7177 144.314 100.86 143 110C152.442 109.566 150.567 89.5718 149.384 83C145.857 63.4039 130.586 47.0967 111 43z"/>
<path style="fill:#fffffe; stroke:none;" d="M127 43L128 44L127 43M87 44L88 45L87 44M63 45L63 49L64 49L63 45M66 45L67 52L63 50L65 53L58 52L60 58L57 58L58 61L51 60L54 67L50 65L53 68L53 69L46 70L51 76C54.7732 64.937 62.8475 54.8685 73 49L66 45z"/>
<path style="fill:#fdba26; stroke:none;" d="M107.333 45.6667L107.667 46.3333L107.333 45.6667z"/>
<path style="fill:#fffffe; stroke:none;" d="M134 45L134 48L135 48L134 45z"/>
<path style="fill:#45b5e7; stroke:none;" d="M150 46L150 47L156 46L150 46z"/>
<path style="fill:#fffffe; stroke:none;" d="M56 79C51.4049 82.4114 50.2494 97.4458 55 101L56 107L56 108L54 111C60.9948 116.615 64.8423 129.201 75 130C75.8558 133.03 76.9195 133.283 80 133C83.4146 138.348 96.9068 140.768 102 137L103 137L109 136C112.911 137.951 117.502 135.085 121.17 133.192C129.695 128.793 143.642 116.73 142 106C147.94 101.741 147.837 82.3333 142 78C142.783 69.8002 132.637 55.3198 124 55C122.38 52.0594 121.314 51.5009 118 52C114.588 46.5255 105.673 46.1919 99.7145 46.1667C84.2657 46.1012 52.9453 59.0322 56 79M116 46L117 47L116 46M78 47L79 48L78 47M119 47L121 49L119 47z"/>
<path style="fill:#45b5e7; stroke:none;" d="M29 49L28 52L29 52L29 49z"/>
<path style="fill:#fffffe; stroke:none;" d="M55 54L56 54L56 50L62 50C58.0086 48.384 55.6905 49.8627 55 54M74 49L75 50L74 49M136 49L136 50L142 50L142 55C143.832 50.1773 140.164 49.1367 136 49M125 50L126 51L125 50z"/>
<path style="fill:#45b5e7; stroke:none;" d="M7 54L6 62L11 55L7 54z"/>
<path style="fill:#fffffe; stroke:none;" d="M67 54L68 55L67 54z"/>
<path style="fill:#45b5e7; stroke:none;" d="M12 55L12 56L16 58L15 55L12 55z"/>
<path style="fill:#fffffe; stroke:none;" d="M56 56L51 57L51 58L57 57L56 56M64 57L65 58L64 57M133.667 57.3333L134.333 57.6667L133.667 57.3333z"/>
<path style="fill:#45b5e7; stroke:none;" d="M21 58L21 61L23 61L23 58L21 58z"/>
<path style="fill:#fffffe; stroke:none;" d="M48 58L48 62L49 62L50 58L48 58M149 58L148 64L149 64L149 58M30 60L31 64L32 64L35 62L30 60M60 61L61 62L60 61M164 66L168 62L164 66M49 63L50 64L49 63M139 64L140 65L139 64M25.6667 65.3333L26.3333 65.6667L25.6667 65.3333M57 66L58 67L57 66M43 68L43 69L48 68L43 68M141 67L142 68L141 67M152 67L152 68L155 69L152 67M163 67L163 68L167 70L163 67M43.3333 70.6667L43.6667 71.3333L43.3333 70.6667M44 73L48 77L44 73z"/>
<path style="fill:#45b5e7; stroke:none;" d="M0 74L0 75L3 75L0 74z"/>
<path style="fill:#fffffe; stroke:none;" d="M164.667 74.3333L165.333 74.6667L164.667 74.3333M167 75L168 76L167 75M49 76L49 79L43 80L47 87L44 86L47 89L41 92L47 96L44 97L39 106L40 106L47 99L43 105L49 106L49 108L45 108L45 109L50 109L46 116L53 116L53 117L47 118L47 119L54 118L51 125L58 124L50 127L50 128L57 129L60 126L58 133L65 132L63 135L64 136L66 133L67 133L66 140L73 137L74 138L73 145L74 145L74 139L76 139L76 145L83 142L78 147L78 148L83 147L84 147L84 142L85 142L87 149L92 144L93 144L92 148L95 148L94 144L98 150L100 150L102 144L105 147L106 147L105 144L111 149L113 142L116 146L117 146L116 141C120.287 145.713 122.807 143.868 123 138L124 138L125 143L126 143L129 142L129 141L125 137L132 140L131 133C122.346 136.275 115.439 141.199 105.996 142.678C82.369 146.379 59.0481 131.163 51.0903 109C48.7864 102.584 47.6124 95.8128 48.0895 89C48.3919 84.6815 50.4886 80.1521 49 76M145 76L146 77L145 76M21 77L22 78L21 77M43.6667 77.3333L44.3333 77.6667L43.6667 77.3333M41 78L39 81L41 78M164 78L161 85L165 87L168 82L164 78M51 79L52 80L51 79M40 82L42 84L40 82M157 82L154 86L157 82z"/>
<path style="fill:#45b5e7; stroke:none;" d="M20 83L23 85L20 83z"/>
<path style="fill:#fffffe; stroke:none;" d="M50 83L51 84L50 83z"/>
<path style="fill:#137dc1; stroke:none;" d="M27 84L29 92L25 90L27 97L29 97L35 95L34 85L32 88L27 84z"/>
<path style="fill:#fffffe; stroke:none;" d="M43 85L44 86L43 85z"/>
<path style="fill:#45b5e7; stroke:none;" d="M31 86L32 87L31 86z"/>
<path style="fill:#fffffe; stroke:none;" d="M147 86L148 87L147 86z"/>
<path style="fill:#45b5e7; stroke:none;" d="M28 88L28 92L29 92L28 88z"/>
<path style="fill:#fffffe; stroke:none;" d="M42 88L43 89L42 88M155 88L156 89L155 88z"/>
<path style="fill:#45b5e7; stroke:none;" d="M16 92L19 90C16.6038 89.4254 16.513 89.5249 16 92z"/>
<path style="fill:#fffffe; stroke:none;" d="M40 89L39 95L40 95L40 89M157 89C157.951 92.4334 157.652 93.6261 155 96L155 97C159 94.9752 160.338 92.4191 157 89M49 92L50 93L49 92M148 92L149 93L148 92M40 95L41 96L40 95z"/>
<path style="fill:#137dc1; stroke:none;" d="M32 99L35 99L35 106L35 107L34 112L41 110C40.1625 113.918 40.6398 116.644 44 119C45.2171 115.608 46.8822 111.781 44 109L44 108L47 107L43 105L47 100C42.4507 100.207 40.5466 102.661 42 107L39 106L44 99L44 98C41.2489 96.5447 39.2347 95.4903 37 98L33 96L32 99z"/>
<path style="fill:#fffffe; stroke:none;" d="M35 96L35 98L37 98L37 96L35 96M42 96L43 97L42 96M148 96L149 97L148 96z"/>
<path style="fill:#45b5e7; stroke:none;" d="M15 97L16 98L15 97z"/>
<path style="fill:#137dc1; stroke:none;" d="M14 98L14 99L17 99L14 98M50 98C48.5533 104.808 51.4566 110.799 54 117L58 115C57.2644 113.062 56.5644 110.921 55 113L54 113L56 108L56 107L52 105L55 102L50 98M31 99L30 103L31 103L31 99z"/>
<path style="fill:#45b5e7; stroke:none;" d="M38.3333 99.6667L38.6667 100.333L38.3333 99.6667M46 99L47 100L46 99z"/>
<path style="fill:#fffffe; stroke:none;" d="M147 100L148 101L147 100M157 102L158 105L153 107L153 108C156.223 106.866 158.937 105.471 157 102z"/>
<path style="fill:#45b5e7; stroke:none;" d="M30 103L31 104L30 103z"/>
<path style="fill:#fffffe; stroke:none;" d="M51 103L52 104L51 103z"/>
<path style="fill:#45b5e7; stroke:none;" d="M53 103L52 105L54 105L53 103z"/>
<path style="fill:#137dc1; stroke:none;" d="M30 104L30 106L32 104L30 104z"/>
<path style="fill:#d8202a; stroke:none;" d="M159.333 104.667L159.667 105.333L159.333 104.667z"/>
<path style="fill:#45b5e7; stroke:none;" d="M31 105L32 106L31 105M40.3333 105.667L40.6667 106.333L40.3333 105.667M50 105L51 106L50 105z"/>
<path style="fill:#fffffe; stroke:none;" d="M146 105L147 106L146 105M41 106L42 107L41 106z"/>
<path style="fill:#45b5e7; stroke:none;" d="M47 106L47 108L49 106L47 106z"/>
<path style="fill:#d8202a; stroke:none;" d="M142 106L143 107L142 106z"/>
<path style="fill:#fffffe; stroke:none;" d="M42 107L43 108L42 107z"/>
<path style="fill:#45b5e7; stroke:none;" d="M43 107L44 108L43 107z"/>
<path style="fill:#137dc1; stroke:none;" d="M48 107L49 108L48 107z"/>
<path style="fill:#d8202a; stroke:none;" d="M143.333 107.667L143.667 108.333L143.333 107.667z"/>
<path style="fill:#45b5e7; stroke:none;" d="M44 108L45 109L44 108z"/>
<path style="fill:#fffffe; stroke:none;" d="M52 108L53 109L52 108z"/>
<path style="fill:#fdba26; stroke:none;" d="M149 108L152 111L149 108z"/>
<path style="fill:#45b5e7; stroke:none;" d="M20 109L21 110L20 109M46 109L46 114L47 114L46 109z"/>
<path style="fill:#137dc1; stroke:none;" d="M47 112L50 109L47 112z"/>
<path style="fill:#fffffe; stroke:none;" d="M145 109L146 110L145 109z"/>
<path style="fill:#137dc1; stroke:none;" d="M20 110L21 111L20 110z"/>
<path style="fill:#d8202a; stroke:none;" d="M142 110L141 112L143 112L142 110z"/>
<path style="fill:#fffffe; stroke:none;" d="M45 111L46 112L45 111z"/>
<path style="fill:#45b5e7; stroke:none;" d="M54 111L55 112L54 111z"/>
<path style="fill:#fffffe; stroke:none;" d="M44 112L45 113L44 112M54 112L55 113L54 112z"/>
<path style="fill:#d8202a; stroke:none;" d="M140 112L141 113L140 112z"/>
<path style="fill:#45b5e7; stroke:none;" d="M20 113L19 115L20 113z"/>
<path style="fill:#137dc1; stroke:none;" d="M21 119L23 113C20.1882 114.627 19.5039 116.018 21 119z"/>
<path style="fill:#fdba26; stroke:none;" d="M140 113L141 114L140 113z"/>
<path style="fill:#d8202a; stroke:none;" d="M139 116L139 117L141 121L142 121L143 118L146 122L150 121L151 116L145 116L146 113L139 116z"/>
<path style="fill:#fffffe; stroke:none;" d="M43 114L43 117L44 117L43 114z"/>
<path style="fill:#45b5e7; stroke:none;" d="M45 115L45 117L47 117L45 115z"/>
<path style="fill:#fffffe; stroke:none;" d="M56.3333 115.667L56.6667 116.333L56.3333 115.667z"/>
<path style="fill:#d8202a; stroke:none;" d="M57 115L55 117C60.631 143.747 103.286 147.69 123 137.833C126.311 136.178 143.248 123.757 137 123L137 122L139 117L137 117C131.798 135.066 93.5932 147.092 80 133L75 130C66.8953 128.711 62.9978 119.674 57 115z"/>
<path style="fill:#fdba26; stroke:none;" d="M146 115L147 116L146 115z"/>
<path style="fill:#45b5e7; stroke:none;" d="M19 116L20 117L19 116z"/>
<path style="fill:#137dc1; stroke:none;" d="M47 118L53 117L47 118z"/>
<path style="fill:#45b5e7; stroke:none;" d="M55 116L56 117L55 116z"/>
<path style="fill:#fffffe; stroke:none;" d="M144 116L148 120L144 116M44.6667 117.333L45.3333 117.667L44.6667 117.333z"/>
<path style="fill:#d8202a; stroke:none;" d="M46 117L45 118L49 130C38.1043 130.233 35.4627 139.942 30 148L30 149L33 155L30 156L30 157L53 163C50.6465 171.838 61.6124 169.651 56 161L61 164L67 163L69 157L77 159L86 160C85.9355 167.487 90.9652 170.322 97 166L97 172L98 169L104 170L107 181L108 181L107 160L122 161C130.352 152.928 136.602 168.709 147 167L147 166L143 165L144 162L143 160L139 159L141 151L135 149L149 146C149 134.479 151.705 131.084 139 127L140 133L133 132L135 141L134 141L131 133L132 140L125 137L129 141L129 142C126.46 141.477 126.315 141.405 126 144L125 144L125 139L123 139C122.124 144.427 119.432 143.595 115 142L118 146L114 142L113 142L111 149L105 144L106 147L105 147L102 144L100 150L98 150L94 144L95 149L94 149L92 148L93 144L92 144L87 149L85 142L84 142L84 147L83 147L82 145L78 148L78 147L83 142L77 146L76 139L74 139L74 145L73 145L74 138L73 137L66 140L67 133L66 133L64 136L65 132L58 133L60 126L57 130L56 130L50 128L50 127L58 126L58 125L51 125L54 118L51 121L46 117M49 117L49 118L52 118L49 117z"/>
<path style="fill:#45b5e7; stroke:none;" d="M42 118L43 119L42 118M44 118L44 126L45 126L44 118z"/>
<path style="fill:#137dc1; stroke:none;" d="M46 119L47 120L46 119z"/>
<path style="fill:#fdba26; stroke:none;" d="M50 119L51 120L50 119z"/>
<path style="fill:#fffffe; stroke:none;" d="M50 120L51 121L50 120M58 120L59 121L58 120M49.3333 121.667L49.6667 122.333L49.3333 121.667z"/>
<path style="fill:#fdba26; stroke:none;" d="M183 121L183 122L188 124L188 123L183 121M64 122L65 123L64 122z"/>
<path style="fill:#137dc1; stroke:none;" d="M28 126L34 125C31.3376 123.222 30.2195 123.785 28 126z"/>
<path style="fill:#fdba26; stroke:none;" d="M61 123L62 124L61 123M57 124L58 125L57 124z"/>
<path style="fill:#fffffe; stroke:none;" d="M137 124L138 125L137 124z"/>
<path style="fill:#45b5e7; stroke:none;" d="M29 126L30 127L29 126z"/>
<path style="fill:#d8202a; stroke:none;" d="M47 126L48 127L47 126z"/>
<path style="fill:#fffffe; stroke:none;" d="M64 126L65 127L64 126z"/>
<path style="fill:#45b5e7; stroke:none;" d="M33.6667 127.333L34.3333 127.667L33.6667 127.333z"/>
<path style="fill:#fdba26; stroke:none;" d="M138 127L139 128L138 127z"/>
<path style="fill:#137dc1; stroke:none;" d="M32 128L33 131L34 131L35 128L32 128z"/>
<path style="fill:#fdba26; stroke:none;" d="M56 129L57 130L56 129M58 129L59 130L58 129M40 130L41 131L40 130z"/>
<path style="fill:#fffffe; stroke:none;" d="M68 130L69 131L68 130z"/>
<path style="fill:#fdba26; stroke:none;" d="M130 130L131 131L130 130z"/>
<path style="fill:#fffffe; stroke:none;" d="M142 130L140 135L140 136C142.555 134.35 143.098 132.88 142 130M55 131C55.7279 135.362 57.8242 135.863 62 136L62 135L56 135L55 131z"/>
<path style="fill:#fdba26; stroke:none;" d="M167 131L167 133L169 133L169 131L167 131z"/>
<path style="fill:#fffffe; stroke:none;" d="M127 132L128 133L127 132z"/>
<path style="fill:#fdba26; stroke:none;" d="M130 132L131 133L130 132M135 132L136 133L135 132M64 133L65 134L64 133M78 133L79 134L78 133z"/>
<path style="fill:#fffffe; stroke:none;" d="M123 134L124 135L123 134z"/>
<path style="fill:#fdba26; stroke:none;" d="M131 134L132 135L131 134M133 134L135 136L133 134z"/>
<path style="fill:#fffffe; stroke:none;" d="M134 134L135 135L134 134z"/>
<path style="fill:#fdba26; stroke:none;" d="M115 135L116 136L115 135z"/>
<path style="fill:#fffffe; stroke:none;" d="M136 135L136 136L139 136L136 135z"/>
<path style="fill:#fdba26; stroke:none;" d="M139 135L140 136L139 135M142 135L143 136L142 135M73 136L74 137L73 136M77 136L78 137L77 136M108 136L109 137L108 136z"/>
<path style="fill:#fffffe; stroke:none;" d="M119 136L120 137L119 136M134 136L134 141L135 141L134 136z"/>
<path style="fill:#fdba26; stroke:none;" d="M75 137L76 138L75 137M102 137L103 138L102 137M111 137L112 138L111 137M36 138L37 139L36 138M77 138L78 139L77 138M92 138L93 139L92 138z"/>
<path style="fill:#fffffe; stroke:none;" d="M115 138L116 139L115 138z"/>
<path style="fill:#fdba26; stroke:none;" d="M123 138L124 139L123 138z"/>
<path style="fill:#fffffe; stroke:none;" d="M86 139L87 140L86 139z"/>
<path style="fill:#fdba26; stroke:none;" d="M110 139L111 140L110 139M118 139L119 140L118 139M34 140L35 141L34 140M64 140L65 141L64 140M82 140L83 141L82 140z"/>
<path style="fill:#fffffe; stroke:none;" d="M90 140L91 141L90 140M104 140L105 141L104 140M64 141L65 142L64 141M70 141L71 142L70 141z"/>
<path style="fill:#fdba26; stroke:none;" d="M71 141L72 142L71 141M85 141L86 142L85 141M112 141L113 142L112 141M116 141L117 142L116 141M64 142L65 143L64 142M66 142L67 143L66 142z"/>
<path style="fill:#fffffe; stroke:none;" d="M67.6667 142.333L68.3333 142.667L67.6667 142.333z"/>
<path style="fill:#fdba26; stroke:none;" d="M69 142L70 143L69 142M129 142L130 143L129 142z"/>
<path style="fill:#fffffe; stroke:none;" d="M130 142L130 143L134 143L130 142z"/>
<path style="fill:#fdba26; stroke:none;" d="M125 143L126 144L125 143M115 144L116 145L115 144z"/>
<path style="fill:#137dc1; stroke:none;" d="M126 144L129 148L126 144z"/>
<path style="fill:#fdba26; stroke:none;" d="M149 144L150 145L149 144M74 145L75 146L74 145M77 145L78 146L77 145M117 145L118 146L117 145z"/>
<path style="fill:#fffffe; stroke:none;" d="M124 145L123 148L124 145z"/>
<path style="fill:#fdba26; stroke:none;" d="M147 145L148 146L147 145z"/>
<path style="fill:#fffffe; stroke:none;" d="M74 146L75 147L74 146z"/>
<path style="fill:#fdba26; stroke:none;" d="M94 146L95 147L94 146z"/>
<path style="fill:#fffffe; stroke:none;" d="M114.333 146.667L114.667 147.333L114.333 146.667M118 146L121 148L121 147L118 146M130 146L131 147L130 146z"/>
<path style="fill:#fdba26; stroke:none;" d="M86 147L87 148L86 147z"/>
<path style="fill:#fffffe; stroke:none;" d="M103 147L102 150L103 147M131 147L130 151L129 151L129 148L125 149L131 154L131 147M75.6667 148.333L76.3333 148.667L75.6667 148.333M84 148L85 149L84 148z"/>
<path style="fill:#fdba26; stroke:none;" d="M88 148L89 149L88 148M91 148L90 150L92 150L91 148M94 148L95 149L94 148z"/>
<path style="fill:#fffffe; stroke:none;" d="M106 148L107 149L106 148z"/>
<path style="fill:#fdba26; stroke:none;" d="M114 148L115 149L114 148M122 148L123 149L122 148M130 148L131 149L130 148M136 148L137 149L136 148M138 148L139 149L138 148M140 148L141 149L140 148z"/>
<path style="fill:#fffffe; stroke:none;" d="M95 149L96 150L95 149M107 149L108 150L107 149M113 149L114 150L113 149M85 150L86 151L85 150M89 150L90 151L89 150z"/>
<path style="fill:#fdba26; stroke:none;" d="M96.3333 150.667L96.6667 151.333L96.3333 150.667M102 150L103 151L102 150z"/>
<path style="fill:#fffffe; stroke:none;" d="M108 150L109 151L108 150z"/>
<path style="fill:#fdba26; stroke:none;" d="M109 150L110 151L109 150M112 150L113 151L112 150z"/>
<path style="fill:#fffffe; stroke:none;" d="M86 151L86 152L89 152L86 151M101 151L102 152L101 151M110 151L111 152L110 151z"/>
<path style="fill:#fdba26; stroke:none;" d="M111 151L112 152L111 151M132 151L133 152L132 151M97 152L98 153L97 152z"/>
<path style="fill:#fffffe; stroke:none;" d="M98 152L99 153L98 152z"/>
<path style="fill:#fdba26; stroke:none;" d="M99 152L100 153L99 152z"/>
<path style="fill:#fffffe; stroke:none;" d="M100 152L101 153L100 152M87 154L88 157L92 156L92 155L87 154M33 155L34 156L33 155z"/>
<path style="fill:#fdba26; stroke:none;" d="M87 156L88 157L87 156M30 157L31 158L30 157M88 157L89 158L88 157M127 157L128 158L127 157M123 158L124 159L123 158z"/>
<path style="fill:#fffffe; stroke:none;" d="M93 159L93 160L97 162C98.0951 159.095 95.4499 159.12 93 159z"/>
<path style="fill:#d8202a; stroke:none;" d="M69 160L70 165L72 165L73 164L72 160L69 160z"/>
<path style="fill:#fdba26; stroke:none;" d="M70 160L71 161L70 160M107 160L108 161L107 160z"/>
<path style="fill:#d8202a; stroke:none;" d="M125.667 160.333L126.333 160.667L125.667 160.333z"/>
<path style="fill:#fdba26; stroke:none;" d="M54 162L55 163L54 162M60 162L61 163L60 162M107.333 163.667L107.667 164.333L107.333 163.667M58 164L59 165L58 164M96 166L97 167L96 166z"/>
<path style="fill:#d8202a; stroke:none;" d="M148 167L146 171L150 171L148 167z"/>
<path style="fill:#fdba26; stroke:none;" d="M58 168L59 169L58 168M106 168L107 169L106 168M96 169L97 170L96 169M105 169L106 170L105 169M146 169L147 170L146 169M101 170L102 171L101 170z"/>
<path style="fill:#d8202a; stroke:none;" d="M51.3333 172.667L51.6667 173.333L51.3333 172.667M96 172L94 185L95 185L98 173L96 172M87 176L90 173L87 176M62 178L62 181L64 178L62 178z"/>
<path style="fill:#fdba26; stroke:none;" d="M106 178L107 179L106 178z"/>
<path style="fill:#d8202a; stroke:none;" d="M45 182L46 183L45 182M44 183L45 184L44 183z"/>
<path style="fill:#fdba26; stroke:none;" d="M94 183L95 184L94 183M44 184L45 185L44 184z"/>
</svg>
