<?xml version="1.0" standalone="no"?>
<!DOCTYPE svg PUBLIC "-//W3C//DTD SVG 20010904//EN"
 "http://www.w3.org/TR/2001/REC-SVG-20010904/DTD/svg10.dtd">
<svg version="1.0" xmlns="http://www.w3.org/2000/svg"
 width="205.000000pt" height="191.000000pt" viewBox="0 0 205.000000 191.000000"
 preserveAspectRatio="xMidYMid meet">

<g transform="translate(0.000000,191.000000) scale(0.100000,-0.100000)"
fill="#000000" stroke="none">
<path d="M1146 1744 c-226 -55 -395 -270 -396 -504 0 -115 55 -256 133 -341
l43 -47 -76 -16 c-325 -68 -592 -81 -736 -34 -57 19 -59 54 -4 100 39 34 40
37 32 74 l-9 39 -61 -61 c-93 -94 -94 -157 -4 -203 71 -35 141 -46 297 -45
159 1 291 17 491 61 65 14 128 26 139 26 11 0 49 -13 85 -29 61 -27 73 -29
185 -27 66 1 133 3 150 5 27 3 32 -2 55 -47 216 -420 355 -681 364 -687 50
-33 216 59 216 119 0 9 -50 95 -112 192 -217 342 -328 520 -328 527 0 3 22 32
49 64 26 32 60 87 76 122 21 49 36 68 68 88 23 14 69 53 103 87 92 91 98 158
17 205 -26 16 -152 50 -160 43 -2 -1 3 -16 10 -34 8 -21 20 -34 37 -37 14 -3
42 -13 63 -21 41 -18 47 -39 21 -78 -16 -25 -91 -85 -106 -85 -4 0 -8 26 -8
58 -1 130 -52 244 -156 350 -130 131 -299 179 -478 136z m245 -85 c180 -58
295 -202 306 -384 8 -123 -22 -221 -99 -316 -113 -141 -342 -191 -511 -111
-276 129 -343 481 -132 698 114 117 287 162 436 113z"/>
</g>
</svg>
