<?xml version="1.0" standalone="yes"?>
<svg xmlns="http://www.w3.org/2000/svg" width="205" height="205">
<path style="fill:#fefefe; stroke:none;" d="M0 0L0 205L205 205L205 0L0 0z"/>
<path style="fill:#5f5f5f; stroke:none;" d="M131 5L132 6L131 5z"/>
<path style="fill:#2d2d2d; stroke:none;" d="M132 5L133 6L132 5z"/>
<path style="fill:#010101; stroke:none;" d="M133 5.45447C106.14 9.12111 110.964 50.0615 138 46.814C164.482 43.6332 159.446 1.84444 133 5.45447z"/>
<path style="fill:#2d2d2d; stroke:none;" d="M138 5L139 6L138 5z"/>
<path style="fill:#a0a0a0; stroke:none;" d="M139 5L140 6L139 5z"/>
<path style="fill:#5f5f5f; stroke:none;" d="M127 6L128 7L127 6z"/>
<path style="fill:#a0a0a0; stroke:none;" d="M125 7L126 8L125 7z"/>
<path style="fill:#5f5f5f; stroke:none;" d="M123 8L124 9L123 8z"/>
<path style="fill:#a0a0a0; stroke:none;" d="M122 9L123 10L122 9M149 10L150 11L149 10z"/>
<path style="fill:#2d2d2d; stroke:none;" d="M120 11L121 12L120 11z"/>
<path style="fill:#a0a0a0; stroke:none;" d="M150 11L151 12L150 11M118 13L119 14L118 13M117 14L118 15L117 14M116 16L117 17L116 16z"/>
<path style="fill:#5f5f5f; stroke:none;" d="M154 17L155 18L154 17z"/>
<path style="fill:#a0a0a0; stroke:none;" d="M115 18L116 19L115 18z"/>
<path style="fill:#5f5f5f; stroke:none;" d="M155 20L156 21L155 20z"/>
<path style="fill:#a0a0a0; stroke:none;" d="M114 22L115 23L114 22z"/>
<path style="fill:#5f5f5f; stroke:none;" d="M114 23L115 24L114 23z"/>
<path style="fill:#2d2d2d; stroke:none;" d="M114 24L115 25L114 24z"/>
<path style="fill:#a0a0a0; stroke:none;" d="M156 24L156 28L157 28L156 24z"/>
<path style="fill:#2d2d2d; stroke:none;" d="M114 27L115 28L114 27z"/>
<path style="fill:#5f5f5f; stroke:none;" d="M114 28L115 29L114 28z"/>
<path style="fill:#a0a0a0; stroke:none;" d="M114 29L115 30L114 29z"/>
<path style="fill:#5f5f5f; stroke:none;" d="M155 31L156 32L155 31z"/>
<path style="fill:#2d2d2d; stroke:none;" d="M115 33L116 34L115 33z"/>
<path style="fill:#5f5f5f; stroke:none;" d="M116 35L117 36L116 35z"/>
<path style="fill:#a0a0a0; stroke:none;" d="M153 36L154 37L153 36z"/>
<path style="fill:#2d2d2d; stroke:none;" d="M117 37L118 38L117 37M118 38L119 39L118 38z"/>
<path style="fill:#a0a0a0; stroke:none;" d="M152 38L153 39L152 38z"/>
<path style="fill:#5f5f5f; stroke:none;" d="M151 39L152 40L151 39M148 42L149 43L148 42z"/>
<path style="fill:#a0a0a0; stroke:none;" d="M145 44L146 45L145 44M89 45L89 46L96 46L89 45z"/>
<path style="fill:#2d2d2d; stroke:none;" d="M143 45L144 46L143 45z"/>
<path style="fill:#a0a0a0; stroke:none;" d="M74 46L75 47L74 46z"/>
<path style="fill:#5f5f5f; stroke:none;" d="M75 46L76 47L75 46z"/>
<path style="fill:#010101; stroke:none;" d="M91 64C86.3635 73.8033 80.3636 82.5177 77.0285 93C73.6885 103.498 71.4226 121.908 62.5262 129.397C52.9779 137.434 17.1484 117.769 16.1528 138C15.5039 151.184 33.3718 149.278 42 150.424C49.6832 151.446 61.5576 153.815 69 151.297C78.7996 147.981 86.2885 133.601 88 124C94.1689 127.807 113.572 137.065 113.794 145.286C114.119 157.339 105.913 171.497 102.785 183C101.24 188.682 101.604 195.994 108.005 198.397C122.125 203.696 125.648 182.159 128.291 173C135.117 149.344 141.098 127.819 113 116L131 78L134 78C136.17 85.5891 140.06 99.876 148.015 103.141C156.633 106.679 171.292 96.8213 179 93.3048C182.363 91.7705 185.99 90.4293 187.82 86.956C194.783 73.7382 176.861 74.6422 170 77.7693C165.073 80.015 160.048 82.0421 155 84C149.844 54.0576 115.645 46 90 46C81.211 46 69.1687 45.0885 62.0401 51.2284C54.6789 57.5687 46.7703 70.6759 43.9931 80C42.0949 86.3728 45.9498 92.5105 52.9961 91.848C63.1835 90.8902 66.2109 73.637 72.5177 67.2785C77.1368 62.6217 85.0173 64 91 64z"/>
<path style="fill:#5f5f5f; stroke:none;" d="M107 46L108 47L107 46z"/>
<path style="fill:#a0a0a0; stroke:none;" d="M108 46L109 47L108 46z"/>
<path style="fill:#5f5f5f; stroke:none;" d="M130 46L131 47L130 46M140 46L141 47L140 46M70 47L71 48L70 47z"/>
<path style="fill:#2d2d2d; stroke:none;" d="M111 47L112 48L111 47z"/>
<path style="fill:#a0a0a0; stroke:none;" d="M112 47L113 48L112 47M65 48L66 49L65 48z"/>
<path style="fill:#5f5f5f; stroke:none;" d="M116 48L117 49L116 48z"/>
<path style="fill:#2d2d2d; stroke:none;" d="M62 50L63 51L62 50M121 50L122 51L121 50z"/>
<path style="fill:#5f5f5f; stroke:none;" d="M123 51L124 52L123 51z"/>
<path style="fill:#2d2d2d; stroke:none;" d="M60 52L61 53L60 52z"/>
<path style="fill:#a0a0a0; stroke:none;" d="M126 52L127 53L126 52M128 53L129 54L128 53z"/>
<path style="fill:#5f5f5f; stroke:none;" d="M57 56L58 57L57 56M135 56L136 57L135 56z"/>
<path style="fill:#a0a0a0; stroke:none;" d="M55 59L56 60L55 59M140 59L141 60L140 59M54 60L55 61L54 60z"/>
<path style="fill:#2d2d2d; stroke:none;" d="M141 60L142 61L141 60z"/>
<path style="fill:#a0a0a0; stroke:none;" d="M53 62L54 63L53 62z"/>
<path style="fill:#5f5f5f; stroke:none;" d="M76 64L77 65L76 64z"/>
<path style="fill:#a0a0a0; stroke:none;" d="M77 64L78 65L77 64z"/>
<path style="fill:#5f5f5f; stroke:none;" d="M145 64L146 65L145 64z"/>
<path style="fill:#2d2d2d; stroke:none;" d="M73 65L74 66L73 65z"/>
<path style="fill:#5f5f5f; stroke:none;" d="M90 65L91 66L90 65z"/>
<path style="fill:#a0a0a0; stroke:none;" d="M146 65L147 66L146 65M72 66L73 67L72 66z"/>
<path style="fill:#5f5f5f; stroke:none;" d="M50 67L51 68L50 67z"/>
<path style="fill:#2d2d2d; stroke:none;" d="M89 67L90 68L89 67M147 67L148 68L147 67M88 68L89 69L88 68M148 68L149 69L148 68z"/>
<path style="fill:#a0a0a0; stroke:none;" d="M49 69L50 70L49 69z"/>
<path style="fill:#5f5f5f; stroke:none;" d="M70 69L71 70L70 69z"/>
<path style="fill:#2d2d2d; stroke:none;" d="M87 70L88 71L87 70M149 70L150 71L149 70z"/>
<path style="fill:#a0a0a0; stroke:none;" d="M69 71L70 72L69 71z"/>
<path style="fill:#5f5f5f; stroke:none;" d="M68 72L69 73L68 72M46 74L47 75L46 74M67 74L68 75L67 74M177 74L178 75L177 74z"/>
<path style="fill:#2d2d2d; stroke:none;" d="M182 74L183 75L182 74z"/>
<path style="fill:#5f5f5f; stroke:none;" d="M84 75L85 76L84 75M175 75L176 76L175 75z"/>
<path style="fill:#a0a0a0; stroke:none;" d="M45 76L46 77L45 76M186 76L187 77L186 76z"/>
<path style="fill:#2d2d2d; stroke:none;" d="M131 78L132 79L131 78M133 78L134 79L133 78z"/>
<path style="fill:#a0a0a0; stroke:none;" d="M153 78L154 79L153 78z"/>
<path style="fill:#5f5f5f; stroke:none;" d="M168 78L169 79L168 78M64 79L65 80L64 79M82 79L83 80L82 79z"/>
<path style="fill:#a0a0a0; stroke:none;" d="M166 79L167 80L166 79M188 79L189 80L188 79M43 80L44 81L43 80M130 80L131 81L130 80z"/>
<path style="fill:#5f5f5f; stroke:none;" d="M154 80L155 81L154 80z"/>
<path style="fill:#a0a0a0; stroke:none;" d="M163 80L164 81L163 80z"/>
<path style="fill:#2d2d2d; stroke:none;" d="M43 81L44 82L43 81M63 81L64 82L63 81M129 81L130 82L129 81z"/>
<path style="fill:#a0a0a0; stroke:none;" d="M161 81L162 82L161 81z"/>
<path style="fill:#5f5f5f; stroke:none;" d="M135 82L136 83L135 82M128 83L129 84L128 83z"/>
<path style="fill:#a0a0a0; stroke:none;" d="M155 83L156 84L155 83z"/>
<path style="fill:#2d2d2d; stroke:none;" d="M127 84L128 85L127 84z"/>
<path style="fill:#5f5f5f; stroke:none;" d="M136 84L137 85L136 84z"/>
<path style="fill:#a0a0a0; stroke:none;" d="M61 85L62 86L61 85z"/>
<path style="fill:#2d2d2d; stroke:none;" d="M60 86L61 87L60 86z"/>
<path style="fill:#a0a0a0; stroke:none;" d="M79 86L80 87L79 86z"/>
<path style="fill:#2d2d2d; stroke:none;" d="M126 86L127 87L126 86z"/>
<path style="fill:#5f5f5f; stroke:none;" d="M188 86L189 87L188 86z"/>
<path style="fill:#2d2d2d; stroke:none;" d="M137 87L138 88L137 87z"/>
<path style="fill:#5f5f5f; stroke:none;" d="M44 88L45 89L44 88z"/>
<path style="fill:#2d2d2d; stroke:none;" d="M59 88L60 89L59 88z"/>
<path style="fill:#a0a0a0; stroke:none;" d="M78 88L79 89L78 88z"/>
<path style="fill:#2d2d2d; stroke:none;" d="M138 89L139 90L138 89z"/>
<path style="fill:#5f5f5f; stroke:none;" d="M186 89L187 90L186 89z"/>
<path style="fill:#2d2d2d; stroke:none;" d="M46 90L47 91L46 90M57 90L58 91L57 90z"/>
<path style="fill:#a0a0a0; stroke:none;" d="M47 91L48 92L47 91M56 91L57 92L56 91M50 92L50 93L53 93L50 92z"/>
<path style="fill:#5f5f5f; stroke:none;" d="M139 92L140 93L139 92M180 92L181 93L180 92z"/>
<path style="fill:#2d2d2d; stroke:none;" d="M178 93L179 94L178 93M76 94L77 95L76 94z"/>
<path style="fill:#5f5f5f; stroke:none;" d="M140 94L141 95L140 94z"/>
<path style="fill:#2d2d2d; stroke:none;" d="M121 95L122 96L121 95z"/>
<path style="fill:#a0a0a0; stroke:none;" d="M174 95L175 96L174 95M171 96L172 97L171 96z"/>
<path style="fill:#5f5f5f; stroke:none;" d="M169 97L170 98L169 97M75 98L76 99L75 98z"/>
<path style="fill:#2d2d2d; stroke:none;" d="M119 99L120 100L119 99z"/>
<path style="fill:#a0a0a0; stroke:none;" d="M162 100L163 101L162 100M74 101L75 102L74 101M160 101L161 102L160 101z"/>
<path style="fill:#2d2d2d; stroke:none;" d="M146 102L147 103L146 102z"/>
<path style="fill:#a0a0a0; stroke:none;" d="M157 102L158 103L157 102M147 103L148 104L147 103M155 103L156 104L155 103M150 104L151 105L150 104z"/>
<path style="fill:#5f5f5f; stroke:none;" d="M151 104L152 105L151 104z"/>
<path style="fill:#a0a0a0; stroke:none;" d="M152 104L153 105L152 104M73 105L74 106L73 105z"/>
<path style="fill:#2d2d2d; stroke:none;" d="M73 106L74 107L73 106M116 106L117 107L116 106z"/>
<path style="fill:#5f5f5f; stroke:none;" d="M72 108L73 109L72 108M115 108L116 109L115 108z"/>
<path style="fill:#a0a0a0; stroke:none;" d="M71 111L72 112L71 111M70 113L71 114L70 113z"/>
<path style="fill:#2d2d2d; stroke:none;" d="M113 115L114 116L113 115M116 117L117 118L116 117z"/>
<path style="fill:#a0a0a0; stroke:none;" d="M68 118L69 119L68 118z"/>
<path style="fill:#2d2d2d; stroke:none;" d="M117 118L118 119L117 118z"/>
<path style="fill:#5f5f5f; stroke:none;" d="M120 120L121 121L120 120z"/>
<path style="fill:#2d2d2d; stroke:none;" d="M67 121L68 122L67 121z"/>
<path style="fill:#5f5f5f; stroke:none;" d="M124 123L125 124L124 123z"/>
<path style="fill:#a0a0a0; stroke:none;" d="M88 124L89 125L88 124z"/>
<path style="fill:#2d2d2d; stroke:none;" d="M89 124L90 125L89 124z"/>
<path style="fill:#a0a0a0; stroke:none;" d="M65 125L66 126L65 125z"/>
<path style="fill:#5f5f5f; stroke:none;" d="M127 126L128 127L127 126M24 128L24 129L27 129L24 128z"/>
<path style="fill:#a0a0a0; stroke:none;" d="M27.6667 128.333L28.3333 128.667L27.6667 128.333z"/>
<path style="fill:#5f5f5f; stroke:none;" d="M129 128L130 129L129 128z"/>
<path style="fill:#2d2d2d; stroke:none;" d="M38 129L39 130L38 129z"/>
<path style="fill:#5f5f5f; stroke:none;" d="M39 129L40 130L39 129z"/>
<path style="fill:#a0a0a0; stroke:none;" d="M40.6667 129.333L41.3333 129.667L40.6667 129.333z"/>
<path style="fill:#2d2d2d; stroke:none;" d="M63 129L64 130L63 129z"/>
<path style="fill:#a0a0a0; stroke:none;" d="M96 129L97 130L96 129z"/>
<path style="fill:#2d2d2d; stroke:none;" d="M47 130L48 131L47 130z"/>
<path style="fill:#5f5f5f; stroke:none;" d="M48 130L49 131L48 130z"/>
<path style="fill:#a0a0a0; stroke:none;" d="M49 130L50 131L49 130M131 130L132 131L131 130z"/>
<path style="fill:#2d2d2d; stroke:none;" d="M18 131L19 132L18 131M85 131L86 132L85 131z"/>
<path style="fill:#5f5f5f; stroke:none;" d="M132 131L133 132L132 131z"/>
<path style="fill:#a0a0a0; stroke:none;" d="M84 133L85 134L84 133z"/>
<path style="fill:#5f5f5f; stroke:none;" d="M102 133L103 134L102 133z"/>
<path style="fill:#2d2d2d; stroke:none;" d="M133 133L134 134L133 133z"/>
<path style="fill:#5f5f5f; stroke:none;" d="M16 134L17 135L16 134z"/>
<path style="fill:#2d2d2d; stroke:none;" d="M83 135L84 136L83 135z"/>
<path style="fill:#5f5f5f; stroke:none;" d="M105 135L106 136L105 135z"/>
<path style="fill:#2d2d2d; stroke:none;" d="M108 137L109 138L108 137z"/>
<path style="fill:#a0a0a0; stroke:none;" d="M135 137L136 138L135 137z"/>
<path style="fill:#2d2d2d; stroke:none;" d="M135 138L136 139L135 138z"/>
<path style="fill:#a0a0a0; stroke:none;" d="M81 139L82 140L81 139M111 140L112 141L111 140z"/>
<path style="fill:#2d2d2d; stroke:none;" d="M16 142L17 143L16 142M79 142L80 143L79 142z"/>
<path style="fill:#5f5f5f; stroke:none;" d="M78 143L79 144L78 143M114 143L115 144L114 143M135 144L136 145L135 144M18 145L19 146L18 145z"/>
<path style="fill:#a0a0a0; stroke:none;" d="M135 145L136 146L135 145z"/>
<path style="fill:#5f5f5f; stroke:none;" d="M19 146L20 147L19 146z"/>
<path style="fill:#2d2d2d; stroke:none;" d="M113 147L114 148L113 147z"/>
<path style="fill:#a0a0a0; stroke:none;" d="M22 148L23 149L22 148M31 149L32 150L31 149z"/>
<path style="fill:#5f5f5f; stroke:none;" d="M32.6667 149.333L33.3333 149.667L32.6667 149.333z"/>
<path style="fill:#2d2d2d; stroke:none;" d="M72 149L73 150L72 149z"/>
<path style="fill:#a0a0a0; stroke:none;" d="M40 150L41 151L40 150z"/>
<path style="fill:#5f5f5f; stroke:none;" d="M41 150L42 151L41 150z"/>
<path style="fill:#2d2d2d; stroke:none;" d="M42 150L43 151L42 150M71 150L72 151L71 150M134 150L135 151L134 150z"/>
<path style="fill:#a0a0a0; stroke:none;" d="M54 151L55 152L54 151z"/>
<path style="fill:#5f5f5f; stroke:none;" d="M55 151L56 152L55 151z"/>
<path style="fill:#2d2d2d; stroke:none;" d="M56 151L57 152L56 151z"/>
<path style="fill:#a0a0a0; stroke:none;" d="M69 151L70 152L69 151M112 151L113 152L112 151M64 152L64 153L67 153L64 152M111 154L112 155L111 154M133 154L134 155L133 154M110 158L111 159L110 158z"/>
<path style="fill:#2d2d2d; stroke:none;" d="M132 158L133 159L132 158z"/>
<path style="fill:#5f5f5f; stroke:none;" d="M109 161L110 162L109 161M131 161L132 162L131 161M108 165L109 166L108 165z"/>
<path style="fill:#2d2d2d; stroke:none;" d="M130 165L131 166L130 165M107 168L108 169L107 168z"/>
<path style="fill:#5f5f5f; stroke:none;" d="M129 168L130 169L129 168z"/>
<path style="fill:#a0a0a0; stroke:none;" d="M106 171L107 172L106 171z"/>
<path style="fill:#2d2d2d; stroke:none;" d="M106 172L107 173L106 172z"/>
<path style="fill:#5f5f5f; stroke:none;" d="M128 172L129 173L128 172z"/>
<path style="fill:#a0a0a0; stroke:none;" d="M105 174L106 175L105 174M127 175L128 176L127 175z"/>
<path style="fill:#5f5f5f; stroke:none;" d="M104 178L105 179L104 178z"/>
<path style="fill:#a0a0a0; stroke:none;" d="M103 180L104 181L103 180z"/>
<path style="fill:#5f5f5f; stroke:none;" d="M125 181L126 182L125 181z"/>
<path style="fill:#2d2d2d; stroke:none;" d="M102 183L103 184L102 183z"/>
<path style="fill:#a0a0a0; stroke:none;" d="M124 185L125 186L124 185z"/>
<path style="fill:#5f5f5f; stroke:none;" d="M101 187L102 188L101 187M123 187L124 188L123 187z"/>
<path style="fill:#2d2d2d; stroke:none;" d="M101.333 188.667L101.667 189.333L101.333 188.667z"/>
<path style="fill:#5f5f5f; stroke:none;" d="M101 190L102 191L101 190z"/>
<path style="fill:#a0a0a0; stroke:none;" d="M122 191L123 192L122 191z"/>
<path style="fill:#5f5f5f; stroke:none;" d="M121 193L122 194L121 193z"/>
<path style="fill:#a0a0a0; stroke:none;" d="M120 195L121 196L120 195M104 196L105 197L104 196z"/>
<path style="fill:#5f5f5f; stroke:none;" d="M119 196L120 197L119 196z"/>
<path style="fill:#a0a0a0; stroke:none;" d="M118 197L119 198L118 197M110 199L111 200L110 199z"/>
<path style="fill:#5f5f5f; stroke:none;" d="M111.667 199.333L112.333 199.667L111.667 199.333z"/>
<path style="fill:#a0a0a0; stroke:none;" d="M113 199L114 200L113 199z"/>
</svg>
