<?xml version="1.0" standalone="yes"?>
<svg xmlns="http://www.w3.org/2000/svg" width="110" height="150">
<path style="fill:#fefefe; stroke:none;" d="M0 0L0 150L5 150C8.77334 129.973 19.1308 115.722 28.5548 98C33.3021 89.0725 39.7559 80.4314 40 70C29.0094 73.394 18.6045 58.0714 17.1929 47.5756C16.6554 43.5789 20.0443 39.8358 20.7361 36C21.733 30.4729 20.3973 25.2813 19 20L20 20L24 25C21.9457 27.9331 21.075 31.4441 24 34C20.4583 44.8884 22.5313 55.6512 34 61C36.5726 55.7016 40.8897 48.6593 41.6929 42.8302C42.496 37.0018 39.2939 33.6458 42.8094 27.9306C47.9903 19.5079 56.6403 25.5513 54 34C68.3379 30.2233 77.285 16.3407 88.2863 7.55402C92.1481 4.4696 97.5503 3.11339 102 1L71 0L0 0z"/>
<path style="fill:#f49241; stroke:none;" d="M72 22L75 28L93.1042 11.3611L103 12L103 11L99 8L106 8L106 5L99 5L99 4L104 0C90.0503 4.32961 83.0422 13.362 72 22z"/>
<path style="fill:#fefefe; stroke:none;" d="M99 4L99 5L106 5L106 8L99 8L103 11L103 12C83.925 6.966 74.9468 35.3436 64 47C72.6617 84.8922 53.0868 114.074 47 150L110 150L110 0L99 4z"/>
<path style="fill:#157976; stroke:none;" d="M27 2L27 3L38 8C35.6162 3.2175 32.1342 2.12389 27 2M24 3L24 5L26 3L24 3z"/>
<path style="fill:#91c247; stroke:none;" d="M23 4L24 5L23 4M35 4L36 5L35 4z"/>
<path style="fill:#157976; stroke:none;" d="M22 5L23 6L22 5M21 6L22 7L21 6z"/>
<path style="fill:#fefefe; stroke:none;" d="M99 6L99 7L103 7L99 6z"/>
<path style="fill:#45bbcf; stroke:none;" d="M20 7L21 8L20 7z"/>
<path style="fill:#157976; stroke:none;" d="M20 8L19 12L20 12L20 8M38 9L38 19L39 19L38 9z"/>
<path style="fill:#91c247; stroke:none;" d="M39 12L40 13L39 12M18 14L19 15L18 14M39 14L40 15L39 14z"/>
<path style="fill:#157976; stroke:none;" d="M18.3333 15.6667L18.6667 16.3333L18.3333 15.6667M19 20L24 26L24 25L19 20M37 20C33.1038 24.6424 30.1837 26.8607 24 26L24 27L28 28L26 31C30.2251 29.0329 37.1082 25.095 37 20z"/>
<path style="fill:#45bbcf; stroke:none;" d="M19 22L20 23L19 22z"/>
<path style="fill:#157976; stroke:none;" d="M45 23L42 30L43 30C46.2344 25.9325 48.9907 25.488 54 26L54 33C58.0996 25.7535 50.9661 23.4758 45 23z"/>
<path style="fill:#45bbcf; stroke:none;" d="M71 23C52.2282 37.8869 33 44.3476 33 72L40 70L36 84C43.7354 84 57.3479 86.5827 63.6821 81.1813C70.7262 75.1745 66.3782 54.5022 64 47C70.5963 42.3384 78.5859 29.0744 71 23z"/>
<path style="fill:#91c247; stroke:none;" d="M22 24L23 25L22 24z"/>
<path style="fill:#45bbcf; stroke:none;" d="M34 25L35 26L34 25z"/>
<path style="fill:#91c247; stroke:none;" d="M44 25L45 26L44 25z"/>
<path style="fill:#f49241; stroke:none;" d="M42 42L55 35L54 26C41.5273 23.7973 40.5867 32.3869 42 42z"/>
<path style="fill:#91c247; stroke:none;" d="M21 26L22 27L21 26M29 26L30 27L29 26z"/>
<path style="fill:#157976; stroke:none;" d="M21 27L22 37L23 37L24 34L21 27z"/>
<path style="fill:#45bbcf; stroke:none;" d="M24 27L25 28L24 27z"/>
<path style="fill:#91c247; stroke:none;" d="M55 30L56 31L55 30z"/>
<path style="fill:#157976; stroke:none;" d="M25 32L24 34L25 32M40.3333 35.6667L40.6667 36.3333L40.3333 35.6667z"/>
<path style="fill:#91c247; stroke:none;" d="M21 36C19.4785 39.5279 17.4291 43.3966 21 46L21 36z"/>
<path style="fill:#157976; stroke:none;" d="M41 38L42 39L41 38z"/>
<path style="fill:#f49241; stroke:none;" d="M18 42L16 49L18 47L19 47C19.2506 55.6317 24.959 68.0718 33 72L23 45L18 45L18 42z"/>
<path style="fill:#91c247; stroke:none;" d="M18 47L18 51L19 51L18 47z"/>
<path style="fill:#f49241; stroke:none;" d="M65 80C56.9542 85.0948 48.1654 84 39 84L39 85C44.4813 87.0013 68.5818 92.2546 65 80z"/>
<path style="fill:#157976; stroke:none;" d="M35 84C32.0111 94.1804 24.6742 102.795 21.4097 113C20.5447 115.704 19.4136 122.15 23.2994 123.248C26.3214 124.103 28.8794 120.622 30.652 118.755C35.7628 113.374 40.9687 107.332 47 103C44.7538 108.998 44.1122 116.609 45.1481 122.981C45.8028 127.007 49.8815 129.245 53.2461 126.257C61.9545 118.523 63.6328 96.8184 65 86C53.4828 88.8374 46.0896 85.1347 35 84z"/>
<path style="fill:#45bbcf; stroke:none;" d="M33 88L34 89L33 88M30 94L31 95L30 94z"/>
<path style="fill:#fefefe; stroke:none;" d="M45 103L6 150L43 150C41.9183 144.177 40.6364 137.879 41.7731 132C43.4149 123.509 48.3731 111.642 45 103z"/>
<path style="fill:#91c247; stroke:none;" d="M46 103L47 104L46 103M61 103L62 104L61 103z"/>
<path style="fill:#45bbcf; stroke:none;" d="M25 104L26 105L25 104z"/>
<path style="fill:#f49241; stroke:none;" d="M5 150L6 150L26 124C21.7323 122.707 20.9138 120.299 21 116C8.79665 121.707 6.51962 138.038 5 150z"/>
<path style="fill:#45bbcf; stroke:none;" d="M29 119L30 120L29 119z"/>
<path style="fill:#f49241; stroke:none;" d="M44 125C40.8124 130.882 37.9884 148.435 47 150L54 127L44 125z"/>
</svg>
